<svg width="500" height="710" xmlns="http://www.w3.org/2000/svg">
  <!-- Users Table Entity -->
  <g id="users-entity">
    <!-- Entity Header -->
    <rect x="50" y="20" width="400" height="35" fill="#f8f9fa" stroke="#606060" stroke-width="2"/>
    <text x="250" y="42" text-anchor="middle" fill="#333" font-family="Arial, sans-serif" font-size="16" font-weight="bold">USERS</text>

    <!-- Column Headers -->
    <rect x="50" y="55" width="200" height="30" fill="#606060" stroke="#606060" stroke-width="1"/>
    <rect x="250" y="55" width="200" height="30" fill="#606060" stroke="#606060" stroke-width="1"/>
    <text x="150" y="75" text-anchor="middle" fill="white" font-family="Arial, sans-serif" font-size="12" font-weight="bold">Field</text>
    <text x="350" y="75" text-anchor="middle" fill="white" font-family="Arial, sans-serif" font-size="12" font-weight="bold">Details</text>

    <!-- Row 1 - Primary Key (white background) -->
    <rect x="50" y="85" width="200" height="25" fill="white" stroke="#606060" stroke-width="1"/>
    <rect x="250" y="85" width="200" height="25" fill="white" stroke="#606060" stroke-width="1"/>
    <text x="60" y="102" font-family="Arial, sans-serif" font-size="11" font-weight="bold">id</text>
    <text x="440" y="102" text-anchor="end" font-family="Arial, sans-serif" font-size="10" fill="#606060">UUID (PK)</text>

    <!-- Row 2 - email (light grey background) -->
    <rect x="50" y="110" width="200" height="25" fill="#f5f5f5" stroke="#606060" stroke-width="1"/>
    <rect x="250" y="110" width="200" height="25" fill="#f5f5f5" stroke="#606060" stroke-width="1"/>
    <text x="60" y="127" font-family="Arial, sans-serif" font-size="11">email</text>
    <text x="440" y="127" text-anchor="end" font-family="Arial, sans-serif" font-size="10" fill="#606060">TEXT (UNIQUE)</text>

    <!-- Row 3 - username (white background) -->
    <rect x="50" y="135" width="200" height="25" fill="white" stroke="#606060" stroke-width="1"/>
    <rect x="250" y="135" width="200" height="25" fill="white" stroke="#606060" stroke-width="1"/>
    <text x="60" y="152" font-family="Arial, sans-serif" font-size="11">username</text>
    <text x="440" y="152" text-anchor="end" font-family="Arial, sans-serif" font-size="10" fill="#606060">TEXT (UNIQUE)</text>

    <!-- Row 4 - full_name (light grey background) -->
    <rect x="50" y="160" width="200" height="25" fill="#f5f5f5" stroke="#606060" stroke-width="1"/>
    <rect x="250" y="160" width="200" height="25" fill="#f5f5f5" stroke="#606060" stroke-width="1"/>
    <text x="60" y="177" font-family="Arial, sans-serif" font-size="11">full_name</text>
    <text x="440" y="177" text-anchor="end" font-family="Arial, sans-serif" font-size="10" fill="#606060">TEXT</text>

    <!-- Row 5 - avatar_url (white background) -->
    <rect x="50" y="185" width="200" height="25" fill="white" stroke="#606060" stroke-width="1"/>
    <rect x="250" y="185" width="200" height="25" fill="white" stroke="#606060" stroke-width="1"/>
    <text x="60" y="202" font-family="Arial, sans-serif" font-size="11">avatar_url</text>
    <text x="440" y="202" text-anchor="end" font-family="Arial, sans-serif" font-size="10" fill="#606060">TEXT</text>

    <!-- Row 6 - student_id (light grey background) -->
    <rect x="50" y="210" width="200" height="25" fill="#f5f5f5" stroke="#606060" stroke-width="1"/>
    <rect x="250" y="210" width="200" height="25" fill="#f5f5f5" stroke="#606060" stroke-width="1"/>
    <text x="60" y="227" font-family="Arial, sans-serif" font-size="11">student_id</text>
    <text x="440" y="227" text-anchor="end" font-family="Arial, sans-serif" font-size="10" fill="#606060">TEXT</text>

    <!-- Row 7 - faculty (white background) -->
    <rect x="50" y="235" width="200" height="25" fill="white" stroke="#606060" stroke-width="1"/>
    <rect x="250" y="235" width="200" height="25" fill="white" stroke="#606060" stroke-width="1"/>
    <text x="60" y="252" font-family="Arial, sans-serif" font-size="11">faculty</text>
    <text x="440" y="252" text-anchor="end" font-family="Arial, sans-serif" font-size="10" fill="#606060">TEXT</text>

    <!-- Row 8 - campus (light grey background) -->
    <rect x="50" y="260" width="200" height="25" fill="#f5f5f5" stroke="#606060" stroke-width="1"/>
    <rect x="250" y="260" width="200" height="25" fill="#f5f5f5" stroke="#606060" stroke-width="1"/>
    <text x="60" y="277" font-family="Arial, sans-serif" font-size="11">campus</text>
    <text x="440" y="277" text-anchor="end" font-family="Arial, sans-serif" font-size="10" fill="#606060">TEXT</text>

    <!-- Row 9 - bio (white background) -->
    <rect x="50" y="285" width="200" height="25" fill="white" stroke="#606060" stroke-width="1"/>
    <rect x="250" y="285" width="200" height="25" fill="white" stroke="#606060" stroke-width="1"/>
    <text x="60" y="302" font-family="Arial, sans-serif" font-size="11">bio</text>
    <text x="440" y="302" text-anchor="end" font-family="Arial, sans-serif" font-size="10" fill="#606060">TEXT</text>

    <!-- Row 10 - gender (light grey background) -->
    <rect x="50" y="310" width="200" height="25" fill="#f5f5f5" stroke="#606060" stroke-width="1"/>
    <rect x="250" y="310" width="200" height="25" fill="#f5f5f5" stroke="#606060" stroke-width="1"/>
    <text x="60" y="327" font-family="Arial, sans-serif" font-size="11">gender</text>
    <text x="440" y="327" text-anchor="end" font-family="Arial, sans-serif" font-size="10" fill="#606060">TEXT</text>

    <!-- Row 11 - play_style (white background) -->
    <rect x="50" y="335" width="200" height="25" fill="white" stroke="#606060" stroke-width="1"/>
    <rect x="250" y="335" width="200" height="25" fill="white" stroke="#606060" stroke-width="1"/>
    <text x="60" y="352" font-family="Arial, sans-serif" font-size="11">play_style</text>
    <text x="440" y="352" text-anchor="end" font-family="Arial, sans-serif" font-size="10" fill="#606060">TEXT</text>

    <!-- Row 12 - sport_preferences (light grey background) -->
    <rect x="50" y="360" width="200" height="25" fill="#f5f5f5" stroke="#606060" stroke-width="1"/>
    <rect x="250" y="360" width="200" height="25" fill="#f5f5f5" stroke="#606060" stroke-width="1"/>
    <text x="60" y="377" font-family="Arial, sans-serif" font-size="11">sport_preferences</text>
    <text x="440" y="377" text-anchor="end" font-family="Arial, sans-serif" font-size="10" fill="#606060">JSONB</text>

    <!-- Row 13 - skill_levels (white background) -->
    <rect x="50" y="385" width="200" height="25" fill="white" stroke="#606060" stroke-width="1"/>
    <rect x="250" y="385" width="200" height="25" fill="white" stroke="#606060" stroke-width="1"/>
    <text x="60" y="402" font-family="Arial, sans-serif" font-size="11">skill_levels</text>
    <text x="440" y="402" text-anchor="end" font-family="Arial, sans-serif" font-size="10" fill="#606060">JSONB</text>

    <!-- Row 14 - available_days (light grey background) -->
    <rect x="50" y="410" width="200" height="25" fill="#f5f5f5" stroke="#606060" stroke-width="1"/>
    <rect x="250" y="410" width="200" height="25" fill="#f5f5f5" stroke="#606060" stroke-width="1"/>
    <text x="60" y="427" font-family="Arial, sans-serif" font-size="11">available_days</text>
    <text x="440" y="427" text-anchor="end" font-family="Arial, sans-serif" font-size="10" fill="#606060">JSONB</text>

    <!-- Row 15 - available_hours (white background) -->
    <rect x="50" y="435" width="200" height="25" fill="white" stroke="#606060" stroke-width="1"/>
    <rect x="250" y="435" width="200" height="25" fill="white" stroke="#606060" stroke-width="1"/>
    <text x="60" y="452" font-family="Arial, sans-serif" font-size="11">available_hours</text>
    <text x="440" y="452" text-anchor="end" font-family="Arial, sans-serif" font-size="10" fill="#606060">JSONB</text>

    <!-- Row 16 - preferred_facilities (light grey background) -->
    <rect x="50" y="460" width="200" height="25" fill="#f5f5f5" stroke="#606060" stroke-width="1"/>
    <rect x="250" y="460" width="200" height="25" fill="#f5f5f5" stroke="#606060" stroke-width="1"/>
    <text x="60" y="477" font-family="Arial, sans-serif" font-size="11">preferred_facilities</text>
    <text x="440" y="477" text-anchor="end" font-family="Arial, sans-serif" font-size="10" fill="#606060">JSONB</text>

    <!-- Row 17 - home_location (white background) -->
    <rect x="50" y="485" width="200" height="25" fill="white" stroke="#606060" stroke-width="1"/>
    <rect x="250" y="485" width="200" height="25" fill="white" stroke="#606060" stroke-width="1"/>
    <text x="60" y="502" font-family="Arial, sans-serif" font-size="11">home_location</text>
    <text x="440" y="502" text-anchor="end" font-family="Arial, sans-serif" font-size="10" fill="#606060">JSONB</text>

    <!-- Row 18 - preference_vector (light grey background) -->
    <rect x="50" y="510" width="200" height="25" fill="#f5f5f5" stroke="#606060" stroke-width="1"/>
    <rect x="250" y="510" width="200" height="25" fill="#f5f5f5" stroke="#606060" stroke-width="1"/>
    <text x="60" y="527" font-family="Arial, sans-serif" font-size="11">preference_vector</text>
    <text x="440" y="527" text-anchor="end" font-family="Arial, sans-serif" font-size="10" fill="#606060">VECTOR</text>

    <!-- Row 19 - account_status (white background) -->
    <rect x="50" y="535" width="200" height="25" fill="white" stroke="#606060" stroke-width="1"/>
    <rect x="250" y="535" width="200" height="25" fill="white" stroke="#606060" stroke-width="1"/>
    <text x="60" y="552" font-family="Arial, sans-serif" font-size="11">account_status</text>
    <text x="440" y="552" text-anchor="end" font-family="Arial, sans-serif" font-size="10" fill="#606060">TEXT</text>

    <!-- Row 20 - is_admin (light grey background) -->
    <rect x="50" y="560" width="200" height="25" fill="#f5f5f5" stroke="#606060" stroke-width="1"/>
    <rect x="250" y="560" width="200" height="25" fill="#f5f5f5" stroke="#606060" stroke-width="1"/>
    <text x="60" y="577" font-family="Arial, sans-serif" font-size="11">is_admin</text>
    <text x="440" y="577" text-anchor="end" font-family="Arial, sans-serif" font-size="10" fill="#606060">BOOLEAN</text>

    <!-- Row 21 - admin_role (white background) -->
    <rect x="50" y="585" width="200" height="25" fill="white" stroke="#606060" stroke-width="1"/>
    <rect x="250" y="585" width="200" height="25" fill="white" stroke="#606060" stroke-width="1"/>
    <text x="60" y="602" font-family="Arial, sans-serif" font-size="11">admin_role</text>
    <text x="440" y="602" text-anchor="end" font-family="Arial, sans-serif" font-size="10" fill="#606060">TEXT</text>

    <!-- Row 22 - created_at (light grey background) -->
    <rect x="50" y="610" width="200" height="25" fill="#f5f5f5" stroke="#606060" stroke-width="1"/>
    <rect x="250" y="610" width="200" height="25" fill="#f5f5f5" stroke="#606060" stroke-width="1"/>
    <text x="60" y="627" font-family="Arial, sans-serif" font-size="11">created_at</text>
    <text x="440" y="627" text-anchor="end" font-family="Arial, sans-serif" font-size="10" fill="#606060">TIMESTAMPTZ</text>

    <!-- Row 23 - updated_at (white background) -->
    <rect x="50" y="635" width="200" height="25" fill="white" stroke="#606060" stroke-width="1"/>
    <rect x="250" y="635" width="200" height="25" fill="white" stroke="#606060" stroke-width="1"/>
    <text x="60" y="652" font-family="Arial, sans-serif" font-size="11">updated_at</text>
    <text x="440" y="652" text-anchor="end" font-family="Arial, sans-serif" font-size="10" fill="#606060">TIMESTAMPTZ</text>
  </g>
</svg>
