<svg width="500" height="460" xmlns="http://www.w3.org/2000/svg">
  <!-- Matches Table Entity -->
  <g id="matches-entity">
    <!-- Entity Header -->
    <rect x="50" y="20" width="400" height="35" fill="#f8f9fa" stroke="#606060" stroke-width="2"/>
    <text x="250" y="42" text-anchor="middle" fill="#333" font-family="Arial, sans-serif" font-size="16" font-weight="bold">MATCHES</text>

    <!-- Column Headers -->
    <rect x="50" y="55" width="200" height="30" fill="#606060" stroke="#606060" stroke-width="1"/>
    <rect x="250" y="55" width="200" height="30" fill="#606060" stroke="#606060" stroke-width="1"/>
    <text x="150" y="75" text-anchor="middle" fill="white" font-family="Arial, sans-serif" font-size="12" font-weight="bold">Field</text>
    <text x="350" y="75" text-anchor="middle" fill="white" font-family="Arial, sans-serif" font-size="12" font-weight="bold">Details</text>
    
    <!-- Row 1 - Primary Key (white background) -->
    <rect x="50" y="85" width="200" height="25" fill="white" stroke="#606060" stroke-width="1"/>
    <rect x="250" y="85" width="200" height="25" fill="white" stroke="#606060" stroke-width="1"/>
    <text x="60" y="102" font-family="Arial, sans-serif" font-size="11" font-weight="bold">id</text>
    <text x="440" y="102" text-anchor="end" font-family="Arial, sans-serif" font-size="10" fill="#606060">UUID (PK)</text>

    <!-- Row 2 - title (light grey background) -->
    <rect x="50" y="110" width="200" height="25" fill="#f5f5f5" stroke="#606060" stroke-width="1"/>
    <rect x="250" y="110" width="200" height="25" fill="#f5f5f5" stroke="#606060" stroke-width="1"/>
    <text x="60" y="127" font-family="Arial, sans-serif" font-size="11">title</text>
    <text x="440" y="127" text-anchor="end" font-family="Arial, sans-serif" font-size="10" fill="#606060">TEXT</text>

    <!-- Row 3 - description (white background) -->
    <rect x="50" y="135" width="200" height="25" fill="white" stroke="#606060" stroke-width="1"/>
    <rect x="250" y="135" width="200" height="25" fill="white" stroke="#606060" stroke-width="1"/>
    <text x="60" y="152" font-family="Arial, sans-serif" font-size="11">description</text>
    <text x="440" y="152" text-anchor="end" font-family="Arial, sans-serif" font-size="10" fill="#606060">TEXT</text>

    <!-- Row 4 - sport_id (light grey background) -->
    <rect x="50" y="160" width="200" height="25" fill="#f5f5f5" stroke="#606060" stroke-width="1"/>
    <rect x="250" y="160" width="200" height="25" fill="#f5f5f5" stroke="#606060" stroke-width="1"/>
    <text x="60" y="177" font-family="Arial, sans-serif" font-size="11" font-weight="bold">sport_id</text>
    <text x="440" y="177" text-anchor="end" font-family="Arial, sans-serif" font-size="10" fill="#606060">UUID (FK)</text>

    <!-- Row 5 - host_id (white background) -->
    <rect x="50" y="185" width="200" height="25" fill="white" stroke="#606060" stroke-width="1"/>
    <rect x="250" y="185" width="200" height="25" fill="white" stroke="#606060" stroke-width="1"/>
    <text x="60" y="202" font-family="Arial, sans-serif" font-size="11" font-weight="bold">host_id</text>
    <text x="440" y="202" text-anchor="end" font-family="Arial, sans-serif" font-size="10" fill="#606060">UUID (FK)</text>

    <!-- Row 6 - location_id (light grey background) -->
    <rect x="50" y="210" width="200" height="25" fill="#f5f5f5" stroke="#606060" stroke-width="1"/>
    <rect x="250" y="210" width="200" height="25" fill="#f5f5f5" stroke="#606060" stroke-width="1"/>
    <text x="60" y="227" font-family="Arial, sans-serif" font-size="11" font-weight="bold">location_id</text>
    <text x="440" y="227" text-anchor="end" font-family="Arial, sans-serif" font-size="10" fill="#606060">UUID (FK)</text>

    <!-- Row 7 - start_time (white background) -->
    <rect x="50" y="235" width="200" height="25" fill="white" stroke="#606060" stroke-width="1"/>
    <rect x="250" y="235" width="200" height="25" fill="white" stroke="#606060" stroke-width="1"/>
    <text x="60" y="252" font-family="Arial, sans-serif" font-size="11">start_time</text>
    <text x="440" y="252" text-anchor="end" font-family="Arial, sans-serif" font-size="10" fill="#606060">TIMESTAMPTZ</text>

    <!-- Row 8 - end_time (light grey background) -->
    <rect x="50" y="260" width="200" height="25" fill="#f5f5f5" stroke="#606060" stroke-width="1"/>
    <rect x="250" y="260" width="200" height="25" fill="#f5f5f5" stroke="#606060" stroke-width="1"/>
    <text x="60" y="277" font-family="Arial, sans-serif" font-size="11">end_time</text>
    <text x="440" y="277" text-anchor="end" font-family="Arial, sans-serif" font-size="10" fill="#606060">TIMESTAMPTZ</text>

    <!-- Row 9 - scheduled_date (white background) -->
    <rect x="50" y="285" width="200" height="25" fill="white" stroke="#606060" stroke-width="1"/>
    <rect x="250" y="285" width="200" height="25" fill="white" stroke="#606060" stroke-width="1"/>
    <text x="60" y="302" font-family="Arial, sans-serif" font-size="11">scheduled_date</text>
    <text x="440" y="302" text-anchor="end" font-family="Arial, sans-serif" font-size="10" fill="#606060">DATE</text>

    <!-- Row 10 - max_participants (light grey background) -->
    <rect x="50" y="310" width="200" height="25" fill="#f5f5f5" stroke="#606060" stroke-width="1"/>
    <rect x="250" y="310" width="200" height="25" fill="#f5f5f5" stroke="#606060" stroke-width="1"/>
    <text x="60" y="327" font-family="Arial, sans-serif" font-size="11">max_participants</text>
    <text x="440" y="327" text-anchor="end" font-family="Arial, sans-serif" font-size="10" fill="#606060">INTEGER</text>

    <!-- Row 11 - skill_level (white background) -->
    <rect x="50" y="335" width="200" height="25" fill="white" stroke="#606060" stroke-width="1"/>
    <rect x="250" y="335" width="200" height="25" fill="white" stroke="#606060" stroke-width="1"/>
    <text x="60" y="352" font-family="Arial, sans-serif" font-size="11">skill_level</text>
    <text x="440" y="352" text-anchor="end" font-family="Arial, sans-serif" font-size="10" fill="#606060">TEXT</text>

    <!-- Row 12 - status (light grey background) -->
    <rect x="50" y="360" width="200" height="25" fill="#f5f5f5" stroke="#606060" stroke-width="1"/>
    <rect x="250" y="360" width="200" height="25" fill="#f5f5f5" stroke="#606060" stroke-width="1"/>
    <text x="60" y="377" font-family="Arial, sans-serif" font-size="11">status</text>
    <text x="440" y="377" text-anchor="end" font-family="Arial, sans-serif" font-size="10" fill="#606060">TEXT</text>

    <!-- Row 13 - created_at (white background) -->
    <rect x="50" y="385" width="200" height="25" fill="white" stroke="#606060" stroke-width="1"/>
    <rect x="250" y="385" width="200" height="25" fill="white" stroke="#606060" stroke-width="1"/>
    <text x="60" y="402" font-family="Arial, sans-serif" font-size="11">created_at</text>
    <text x="440" y="402" text-anchor="end" font-family="Arial, sans-serif" font-size="10" fill="#606060">TIMESTAMPTZ</text>

    <!-- Row 14 - updated_at (light grey background) -->
    <rect x="50" y="410" width="200" height="25" fill="#f5f5f5" stroke="#606060" stroke-width="1"/>
    <rect x="250" y="410" width="200" height="25" fill="#f5f5f5" stroke="#606060" stroke-width="1"/>
    <text x="60" y="427" font-family="Arial, sans-serif" font-size="11">updated_at</text>
    <text x="440" y="427" text-anchor="end" font-family="Arial, sans-serif" font-size="10" fill="#606060">TIMESTAMPTZ</text>
  </g>
</svg>
