<svg width="800" height="550" xmlns="http://www.w3.org/2000/svg">
  <defs>
    <style>
      .header { font-family: Arial, sans-serif; font-size: 16px; font-weight: bold; fill: #2c3e50; }
      .cell { font-family: Arial, sans-serif; font-size: 12px; fill: #34495e; }
      .label { font-family: Arial, sans-serif; font-size: 12px; font-weight: bold; fill: #2c3e50; }
    </style>
  </defs>
  
  <!-- Background -->
  <rect width="800" height="550" fill="#f8f9fa" stroke="#dee2e6" stroke-width="2"/>
  
  <!-- Title -->
  <text x="400" y="25" text-anchor="middle" class="header">Invite Friends Use Case</text>
  
  <!-- Table Header -->
  <rect x="20" y="40" width="760" height="30" fill="#e9ecef" stroke="#adb5bd"/>
  <text x="30" y="58" class="header">Use Case Specification</text>
  
  <!-- Use Case Name -->
  <rect x="20" y="70" width="150" height="25" fill="#f1f3f4" stroke="#adb5bd"/>
  <text x="25" y="87" class="label">Use Case Name:</text>
  <rect x="170" y="70" width="610" height="25" fill="white" stroke="#adb5bd"/>
  <text x="175" y="87" class="cell">Invite Friends</text>
  
  <!-- Actor(s) -->
  <rect x="20" y="95" width="150" height="25" fill="#f1f3f4" stroke="#adb5bd"/>
  <text x="25" y="112" class="label">Actor(s):</text>
  <rect x="170" y="95" width="610" height="25" fill="white" stroke="#adb5bd"/>
  <text x="175" y="112" class="cell">Registered User, System</text>
  
  <!-- Description -->
  <rect x="20" y="120" width="150" height="50" fill="#f1f3f4" stroke="#adb5bd"/>
  <text x="25" y="137" class="label">Description:</text>
  <rect x="170" y="120" width="610" height="50" fill="white" stroke="#adb5bd"/>
  <text x="175" y="137" class="cell">Registered user invites friends to join a hosted match, extending the host match functionality</text>
  
  <!-- Preconditions -->
  <rect x="20" y="170" width="150" height="40" fill="#f1f3f4" stroke="#adb5bd"/>
  <text x="25" y="187" class="label">Preconditions:</text>
  <rect x="170" y="170" width="610" height="40" fill="white" stroke="#adb5bd"/>
  <text x="175" y="187" class="cell">User must be authenticated and have hosted a match</text>
  
  <!-- Main Flow -->
  <rect x="20" y="210" width="150" height="150" fill="#f1f3f4" stroke="#adb5bd"/>
  <text x="25" y="227" class="label">Main Flow:</text>
  <rect x="170" y="210" width="610" height="150" fill="white" stroke="#adb5bd"/>
  <text x="175" y="227" class="cell">1. User accesses hosted match details</text>
  <text x="175" y="242" class="cell">2. User clicks "Invite Friends" option</text>
  <text x="175" y="257" class="cell">3. System displays user's friend list</text>
  <text x="175" y="272" class="cell">4. User selects friends to invite</text>
  <text x="175" y="287" class="cell">5. System sends match invitations to selected friends</text>
  <text x="175" y="302" class="cell">6. System notifies user of successful invitations</text>
  
  <!-- Alternative Flows -->
  <rect x="20" y="360" width="150" height="75" fill="#f1f3f4" stroke="#adb5bd"/>
  <text x="25" y="377" class="label">Alternative Flows:</text>
  <rect x="170" y="360" width="610" height="75" fill="white" stroke="#adb5bd"/>
  <text x="175" y="377" class="cell">• No friends available: Display message to add friends first</text>
  <text x="175" y="392" class="cell">• Match full: Prevent further invitations</text>
  <text x="175" y="407" class="cell">• Invitation failure: Retry mechanism with error notification</text>
</svg>
