<svg width="800" height="500" xmlns="http://www.w3.org/2000/svg">
  <defs>
    <style>
      .header { font-family: Arial, sans-serif; font-size: 16px; font-weight: bold; fill: #2c3e50; }
      .cell { font-family: Arial, sans-serif; font-size: 12px; fill: #34495e; }
      .label { font-family: Arial, sans-serif; font-size: 12px; font-weight: bold; fill: #2c3e50; }
    </style>
  </defs>
  
  <!-- Background -->
  <rect width="800" height="500" fill="#f8f9fa" stroke="#dee2e6" stroke-width="2"/>
  
  <!-- Title -->
  <text x="400" y="25" text-anchor="middle" class="header">Join Match Use Case</text>
  
  <!-- Table Header -->
  <rect x="20" y="40" width="760" height="30" fill="#e9ecef" stroke="#adb5bd"/>
  <text x="30" y="58" class="header">Use Case Specification</text>
  
  <!-- Use Case Name -->
  <rect x="20" y="70" width="150" height="25" fill="#f1f3f4" stroke="#adb5bd"/>
  <text x="25" y="87" class="label">Use Case Name:</text>
  <rect x="170" y="70" width="610" height="25" fill="white" stroke="#adb5bd"/>
  <text x="175" y="87" class="cell">Join Match</text>
  
  <!-- Actor(s) -->
  <rect x="20" y="95" width="150" height="25" fill="#f1f3f4" stroke="#adb5bd"/>
  <text x="25" y="112" class="label">Actor(s):</text>
  <rect x="170" y="95" width="610" height="25" fill="white" stroke="#adb5bd"/>
  <text x="175" y="112" class="cell">Regular User</text>
  
  <!-- Description -->
  <rect x="20" y="120" width="150" height="50" fill="#f1f3f4" stroke="#adb5bd"/>
  <text x="25" y="137" class="label">Description:</text>
  <rect x="170" y="120" width="610" height="50" fill="white" stroke="#adb5bd"/>
  <text x="175" y="137" class="cell">Allows users to participate in available sports matches, earning XP rewards</text>
  <text x="175" y="152" class="cell">and receiving notifications while updating match participant counts and status.</text>
  
  <!-- Preconditions -->
  <rect x="20" y="170" width="150" height="40" fill="#f1f3f4" stroke="#adb5bd"/>
  <text x="25" y="187" class="label">Preconditions:</text>
  <rect x="170" y="170" width="610" height="40" fill="white" stroke="#adb5bd"/>
  <text x="175" y="187" class="cell">1. User must be logged in with complete profile</text>
  <text x="175" y="202" class="cell">2. Match must be available with open spots and not yet started</text>
  
  <!-- Main Flow -->
  <rect x="20" y="210" width="150" height="180" fill="#f1f3f4" stroke="#adb5bd"/>
  <text x="25" y="227" class="label">Main Flow:</text>
  <rect x="170" y="210" width="610" height="180" fill="white" stroke="#adb5bd"/>
  <text x="175" y="227" class="cell">1. User discovers match through Find Games page or recommendations</text>
  <text x="175" y="242" class="cell">2. User clicks "View Details" to see complete match information</text>
  <text x="175" y="257" class="cell">3. System displays match details including host, participants, and requirements</text>
  <text x="175" y="272" class="cell">4. User reviews match compatibility and skill level requirements</text>
  <text x="175" y="287" class="cell">5. User clicks "Join Match" button</text>
  <text x="175" y="302" class="cell">6. System validates user eligibility and available spots</text>
  <text x="175" y="317" class="cell">7. System adds user to participant list and updates match count</text>
  <text x="175" y="332" class="cell">8. System awards XP points for match participation</text>
  <text x="175" y="347" class="cell">9. System sends join confirmation notification to user</text>
  <text x="175" y="362" class="cell">10. System notifies host of new participant</text>
  <text x="175" y="377" class="cell">11. Match status updates to show current participant count</text>
  
  <!-- Alternative Flows -->
  <rect x="20" y="390" width="150" height="90" fill="#f1f3f4" stroke="#adb5bd"/>
  <text x="25" y="407" class="label">Alternative Flows:</text>
  <rect x="170" y="390" width="610" height="90" fill="white" stroke="#adb5bd"/>
  <text x="175" y="407" class="cell">A1. Match full: System displays "Match is full" message with waitlist option</text>
  <text x="175" y="422" class="cell">A2. Already joined: System shows "Already joined" status with leave option</text>
  <text x="175" y="437" class="cell">A3. Skill mismatch: System warns about skill level differences</text>
  <text x="175" y="452" class="cell">A4. Schedule conflict: System alerts user about potential time conflicts</text>
  <text x="175" y="467" class="cell">A5. Leave match: User can leave joined match with penalty considerations</text>
</svg>
