<svg width="1000" height="800" xmlns="http://www.w3.org/2000/svg">
  <defs>
    <style>
      .title { font-family: Arial, sans-serif; font-size: 14px; font-weight: bold; text-anchor: middle; fill: #000; }
      .actor-label { font-family: Arial, sans-serif; font-size: 12px; text-anchor: middle; fill: #000; }
      .usecase-label { font-family: Arial, sans-serif; font-size: 10px; text-anchor: middle; fill: #000; }
      .relationship-label { font-family: Arial, sans-serif; font-size: 9px; text-anchor: middle; fill: #666; }
      .boundary { fill: none; stroke: #000; stroke-width: 2; }
      .actor { fill: none; stroke: #000; stroke-width: 2; }
      .usecase { fill: #fff; stroke: #000; stroke-width: 1.5; }
      .association { stroke: #000; stroke-width: 1; }
      .include { stroke: #000; stroke-width: 1; stroke-dasharray: 5,5; }
      .extend { stroke: #000; stroke-width: 1; stroke-dasharray: 3,3; }
    </style>
  </defs>
  
  <!-- System Boundary -->
  <rect x="150" y="80" width="700" height="650" class="boundary"/>
  
  <!-- System Title -->
  <text x="500" y="100" class="title">SporteaV3 Sports Matching Platform</text>
  <text x="500" y="115" class="title">with ML-Powered Content Moderation and</text>
  <text x="500" y="130" class="title">Gamification System</text>
  
  <!-- Actors -->
  <!-- Regular User (Left) -->
  <circle cx="80" cy="200" r="15" class="actor"/>
  <line x1="80" y1="215" x2="80" y2="250" class="actor"/>
  <line x1="65" y1="230" x2="95" y2="230" class="actor"/>
  <line x1="80" y1="250" x2="65" y2="280" class="actor"/>
  <line x1="80" y1="250" x2="95" y2="280" class="actor"/>
  <text x="80" y="300" class="actor-label">Regular User</text>
  
  <!-- Admin User (Right) -->
  <circle cx="920" cy="200" r="15" class="actor"/>
  <line x1="920" y1="215" x2="920" y2="250" class="actor"/>
  <line x1="905" y1="230" x2="935" y2="230" class="actor"/>
  <line x1="920" y1="250" x2="905" y2="280" class="actor"/>
  <line x1="920" y1="250" x2="935" y2="280" class="actor"/>
  <text x="920" y="300" class="actor-label">Admin User</text>
  
  <!-- System Actor (Bottom Right) -->
  <circle cx="920" cy="600" r="15" class="actor"/>
  <line x1="920" y1="615" x2="920" y2="650" class="actor"/>
  <line x1="905" y1="630" x2="935" y2="630" class="actor"/>
  <line x1="920" y1="650" x2="905" y2="680" class="actor"/>
  <line x1="920" y1="650" x2="935" y2="680" class="actor"/>
  <text x="920" y="700" class="actor-label">System</text>
  
  <!-- Use Cases -->
  <!-- Authentication Use Cases -->
  <ellipse cx="300" cy="180" rx="50" ry="25" class="usecase"/>
  <text x="300" y="185" class="usecase-label">Login to System</text>
  
  <ellipse cx="200" cy="220" rx="45" ry="25" class="usecase"/>
  <text x="200" y="225" class="usecase-label">Register Account</text>
  
  <ellipse cx="400" cy="220" rx="35" ry="25" class="usecase"/>
  <text x="400" y="225" class="usecase-label">Logout</text>
  
  <!-- Core User Use Cases -->
  <ellipse cx="250" cy="300" rx="45" ry="25" class="usecase"/>
  <text x="250" y="305" class="usecase-label">Find Matches</text>
  
  <ellipse cx="350" cy="300" rx="40" ry="25" class="usecase"/>
  <text x="350" y="305" class="usecase-label">Host Match</text>
  
  <ellipse cx="450" cy="300" rx="40" ry="25" class="usecase"/>
  <text x="450" y="305" class="usecase-label">Join Match</text>
  
  <ellipse cx="550" cy="300" rx="50" ry="25" class="usecase"/>
  <text x="550" y="305" class="usecase-label">View Match Details</text>
  
  <!-- Match Management Use Cases -->
  <ellipse cx="300" cy="380" rx="45" ry="25" class="usecase"/>
  <text x="300" y="385" class="usecase-label">Create Match</text>
  
  <ellipse cx="400" cy="380" rx="40" ry="25" class="usecase"/>
  <text x="400" y="385" class="usecase-label">Edit Match</text>
  
  <ellipse cx="500" cy="380" rx="45" ry="25" class="usecase"/>
  <text x="500" y="385" class="usecase-label">Cancel Match</text>
  
  <!-- Profile & Social Use Cases -->
  <ellipse cx="200" cy="460" rx="50" ry="25" class="usecase"/>
  <text x="200" y="465" class="usecase-label">Manage Profile</text>
  
  <ellipse cx="320" cy="460" rx="50" ry="25" class="usecase"/>
  <text x="320" y="465" class="usecase-label">Manage Friends</text>
  
  <ellipse cx="450" cy="460" rx="55" ry="25" class="usecase"/>
  <text x="450" y="465" class="usecase-label">View Leaderboard</text>
  
  <!-- Gamification Use Cases -->
  <ellipse cx="600" cy="460" rx="55" ry="25" class="usecase"/>
  <text x="600" y="465" class="usecase-label">View Achievements</text>
  
  <ellipse cx="700" cy="380" rx="35" ry="25" class="usecase"/>
  <text x="700" y="385" class="usecase-label">Earn XP</text>
  
  <ellipse cx="650" cy="300" rx="50" ry="25" class="usecase"/>
  <text x="650" y="305" class="usecase-label">Track Progress</text>
  
  <!-- Notification Use Cases -->
  <ellipse cx="250" cy="540" rx="55" ry="25" class="usecase"/>
  <text x="250" y="545" class="usecase-label">View Notifications</text>
  
  <ellipse cx="400" cy="540" rx="60" ry="25" class="usecase"/>
  <text x="400" y="545" class="usecase-label">Send Notifications</text>
  
  <ellipse cx="550" cy="540" rx="65" ry="25" class="usecase"/>
  <text x="550" y="545" class="usecase-label">Receive Notifications</text>
  
  <!-- Content & Safety Use Cases -->
  <ellipse cx="200" cy="620" rx="45" ry="25" class="usecase"/>
  <text x="200" y="625" class="usecase-label">Report Issue</text>
  
  <ellipse cx="350" cy="620" rx="55" ry="25" class="usecase"/>
  <text x="350" y="625" class="usecase-label">Moderate Content</text>
  
  <!-- Admin Use Cases -->
  <ellipse cx="650" cy="180" rx="50" ry="25" class="usecase"/>
  <text x="650" y="185" class="usecase-label">Manage Users</text>
  
  <ellipse cx="750" cy="220" rx="50" ry="25" class="usecase"/>
  <text x="750" y="225" class="usecase-label">View Analytics</text>
  
  <ellipse cx="700" cy="260" rx="55" ry="25" class="usecase"/>
  <text x="700" y="265" class="usecase-label">Handle Reports</text>
  
  <ellipse cx="600" cy="620" rx="50" ry="25" class="usecase"/>
  <text x="600" y="625" class="usecase-label">Review Content</text>
  
  <!-- User Associations -->
  <line x1="95" y1="240" x2="245" y2="180" class="association"/>
  <line x1="95" y1="240" x2="155" y2="220" class="association"/>
  <line x1="95" y1="240" x2="365" y2="220" class="association"/>
  <line x1="95" y1="240" x2="205" y2="300" class="association"/>
  <line x1="95" y1="240" x2="310" y2="300" class="association"/>
  <line x1="95" y1="240" x2="410" y2="300" class="association"/>
  <line x1="95" y1="240" x2="150" y2="460" class="association"/>
  <line x1="95" y1="240" x2="270" y2="460" class="association"/>
  <line x1="95" y1="240" x2="395" y2="460" class="association"/>
  <line x1="95" y1="240" x2="545" y2="460" class="association"/>
  <line x1="95" y1="240" x2="195" y2="540" class="association"/>
  <line x1="95" y1="240" x2="155" y2="620" class="association"/>
  
  <!-- Admin Associations -->
  <line x1="905" y1="240" x2="355" y2="180" class="association"/>
  <line x1="905" y1="240" x2="435" y2="220" class="association"/>
  <line x1="905" y1="240" x2="600" y2="180" class="association"/>
  <line x1="905" y1="240" x2="700" y2="220" class="association"/>
  <line x1="905" y1="240" x2="645" y2="260" class="association"/>
  <line x1="905" y1="240" x2="550" y2="620" class="association"/>
  
  <!-- System Associations -->
  <line x1="905" y1="640" x2="460" y2="540" class="association"/>
  <line x1="905" y1="640" x2="405" y2="620" class="association"/>
  <line x1="905" y1="640" x2="740" y2="380" class="association"/>
  <line x1="905" y1="640" x2="700" y2="300" class="association"/>
  <line x1="905" y1="640" x2="615" y2="540" class="association"/>
  
  <!-- Include Relationships -->
  <line x1="350" y1="325" x2="300" y2="355" class="include"/>
  <text x="325" y="345" class="relationship-label">&lt;&lt;include&gt;&gt;</text>
  
  <line x1="370" y1="325" x2="400" y2="355" class="include"/>
  <text x="385" y="345" class="relationship-label">&lt;&lt;include&gt;&gt;</text>
  
  <line x1="370" y1="325" x2="480" y2="355" class="include"/>
  <text x="425" y="345" class="relationship-label">&lt;&lt;include&gt;&gt;</text>
  
  <line x1="270" y1="325" x2="530" y2="325" class="include"/>
  <text x="400" y="320" class="relationship-label">&lt;&lt;include&gt;&gt;</text>
  
  <line x1="470" y1="325" x2="530" y2="325" class="include"/>
  <text x="500" y="320" class="relationship-label">&lt;&lt;include&gt;&gt;</text>
  
  <line x1="220" y1="485" x2="580" y2="485" class="include"/>
  <text x="400" y="480" class="relationship-label">&lt;&lt;include&gt;&gt;</text>
  
  <line x1="470" y1="485" x2="630" y2="325" class="include"/>
  <text x="550" y="405" class="relationship-label">&lt;&lt;include&gt;&gt;</text>
  
  <line x1="270" y1="565" x2="530" y2="565" class="include"/>
  <text x="400" y="560" class="relationship-label">&lt;&lt;include&gt;&gt;</text>
  
  <!-- Extend Relationships -->
  <line x1="320" y1="405" x2="330" y2="595" class="extend"/>
  <text x="325" y="500" class="relationship-label">&lt;&lt;extend&gt;&gt;</text>
  
  <line x1="470" y1="325" x2="680" y2="355" class="extend"/>
  <text x="575" y="340" class="relationship-label">&lt;&lt;extend&gt;&gt;</text>
  
  <line x1="370" y1="325" x2="680" y2="355" class="extend"/>
  <text x="525" y="340" class="relationship-label">&lt;&lt;extend&gt;&gt;</text>
  
  <line x1="720" y1="285" x2="620" y2="595" class="extend"/>
  <text x="670" y="440" class="relationship-label">&lt;&lt;extend&gt;&gt;</text>
  
  <line x1="220" y1="645" x2="380" y2="565" class="extend"/>
  <text x="300" y="605" class="relationship-label">&lt;&lt;extend&gt;&gt;</text>
</svg>
