<svg width="800" height="480" xmlns="http://www.w3.org/2000/svg">
  <defs>
    <style>
      .header { font-family: Arial, sans-serif; font-size: 16px; font-weight: bold; fill: #2c3e50; }
      .cell { font-family: Arial, sans-serif; font-size: 12px; fill: #34495e; }
      .label { font-family: Arial, sans-serif; font-size: 12px; font-weight: bold; fill: #2c3e50; }
    </style>
  </defs>
  
  <!-- Background -->
  <rect width="800" height="480" fill="#f8f9fa" stroke="#dee2e6" stroke-width="2"/>
  
  <!-- Title -->
  <text x="400" y="25" text-anchor="middle" class="header">View Match Details Use Case</text>
  
  <!-- Table Header -->
  <rect x="20" y="40" width="760" height="30" fill="#e9ecef" stroke="#adb5bd"/>
  <text x="30" y="58" class="header">Use Case Specification</text>
  
  <!-- Use Case Name -->
  <rect x="20" y="70" width="150" height="25" fill="#f1f3f4" stroke="#adb5bd"/>
  <text x="25" y="87" class="label">Use Case Name:</text>
  <rect x="170" y="70" width="610" height="25" fill="white" stroke="#adb5bd"/>
  <text x="175" y="87" class="cell">View Match Details</text>
  
  <!-- Actor(s) -->
  <rect x="20" y="95" width="150" height="25" fill="#f1f3f4" stroke="#adb5bd"/>
  <text x="25" y="112" class="label">Actor(s):</text>
  <rect x="170" y="95" width="610" height="25" fill="white" stroke="#adb5bd"/>
  <text x="175" y="112" class="cell">Regular User</text>
  
  <!-- Description -->
  <rect x="20" y="120" width="150" height="50" fill="#f1f3f4" stroke="#adb5bd"/>
  <text x="25" y="137" class="label">Description:</text>
  <rect x="170" y="120" width="610" height="50" fill="white" stroke="#adb5bd"/>
  <text x="175" y="137" class="cell">Displays comprehensive information about a specific match including host details,</text>
  <text x="175" y="152" class="cell">participant list, venue information, skill requirements, and available actions.</text>
  
  <!-- Preconditions -->
  <rect x="20" y="170" width="150" height="40" fill="#f1f3f4" stroke="#adb5bd"/>
  <text x="25" y="187" class="label">Preconditions:</text>
  <rect x="170" y="170" width="610" height="40" fill="white" stroke="#adb5bd"/>
  <text x="175" y="187" class="cell">1. User must be logged in</text>
  <text x="175" y="202" class="cell">2. Match must exist and be accessible to the user</text>
  
  <!-- Main Flow -->
  <rect x="20" y="210" width="150" height="160" fill="#f1f3f4" stroke="#adb5bd"/>
  <text x="25" y="227" class="label">Main Flow:</text>
  <rect x="170" y="210" width="610" height="160" fill="white" stroke="#adb5bd"/>
  <text x="175" y="227" class="cell">1. User clicks "View Details" from match card or recommendation</text>
  <text x="175" y="242" class="cell">2. System retrieves complete match information from database</text>
  <text x="175" y="257" class="cell">3. System displays match title, description, and sport type</text>
  <text x="175" y="272" class="cell">4. System shows host profile information and contact details</text>
  <text x="175" y="287" class="cell">5. System lists current participants with profile links</text>
  <text x="175" y="302" class="cell">6. System displays venue details (court, address, facilities)</text>
  <text x="175" y="317" class="cell">7. System shows date, time, duration, and skill level requirements</text>
  <text x="175" y="332" class="cell">8. System presents available actions (Join, Leave, Report)</text>
  <text x="175" y="347" class="cell">9. System displays participant count and availability status</text>
  <text x="175" y="362" class="cell">10. System shows match compatibility score if applicable</text>
  
  <!-- Alternative Flows -->
  <rect x="20" y="370" width="150" height="90" fill="#f1f3f4" stroke="#adb5bd"/>
  <text x="25" y="387" class="label">Alternative Flows:</text>
  <rect x="170" y="370" width="610" height="90" fill="white" stroke="#adb5bd"/>
  <text x="175" y="387" class="cell">A1. Own hosted match: System shows edit and cancel options instead of join</text>
  <text x="175" y="402" class="cell">A2. Already joined: System displays "Joined" status with leave option</text>
  <text x="175" y="417" class="cell">A3. Match full: System shows waitlist option and full status</text>
  <text x="175" y="432" class="cell">A4. Past match: System displays historical information without join option</text>
  <text x="175" y="447" class="cell">A5. Private match: System shows limited details based on privacy settings</text>
</svg>
